<mxfile host="app.diagrams.net" agent="Mozilla/5.0 (Windows NT 10.0; Win64; x64) AppleWebKit/537.36 (KHTML, like Gecko) Chrome/136.0.0.0 Safari/537.36" version="27.0.6">
  <diagram name="Page-1" id="929967ad-93f9-6ef4-fab6-5d389245f69c">
    <mxGraphModel dx="834" dy="450" grid="1" gridSize="10" guides="1" tooltips="1" connect="1" arrows="1" fold="1" page="1" pageScale="1.5" pageWidth="1169" pageHeight="826" background="none" math="0" shadow="0">
      <root>
        <mxCell id="0" style=";html=1;" />
        <mxCell id="1" style=";html=1;" parent="0" />
        <mxCell id="3WThKrtTpSp3f6bvi-z2-1" value="Drone" style="verticalAlign=top;align=left;spacingTop=8;spacingLeft=2;spacingRight=12;shape=cube;size=10;direction=south;fontStyle=4;html=1;whiteSpace=wrap;" vertex="1" parent="1">
          <mxGeometry x="180" y="140" width="210" height="150" as="geometry" />
        </mxCell>
        <mxCell id="3WThKrtTpSp3f6bvi-z2-2" value="system.exe" style="html=1;dropTarget=0;whiteSpace=wrap;" vertex="1" parent="1">
          <mxGeometry x="210" y="190" width="100" height="60" as="geometry" />
        </mxCell>
        <mxCell id="3WThKrtTpSp3f6bvi-z2-3" value="" style="shape=module;jettyWidth=8;jettyHeight=4;" vertex="1" parent="3WThKrtTpSp3f6bvi-z2-2">
          <mxGeometry x="1" width="21" height="20" relative="1" as="geometry">
            <mxPoint x="-28" y="7" as="offset" />
          </mxGeometry>
        </mxCell>
        <mxCell id="3WThKrtTpSp3f6bvi-z2-6" value="API Gateway" style="verticalAlign=top;align=left;spacingTop=8;spacingLeft=2;spacingRight=12;shape=cube;size=10;direction=south;fontStyle=4;html=1;whiteSpace=wrap;" vertex="1" parent="1">
          <mxGeometry x="480" y="140" width="210" height="150" as="geometry" />
        </mxCell>
        <mxCell id="3WThKrtTpSp3f6bvi-z2-4" value="AI responses" style="html=1;dropTarget=0;whiteSpace=wrap;" vertex="1" parent="1">
          <mxGeometry x="510" y="185" width="120" height="60" as="geometry" />
        </mxCell>
        <mxCell id="3WThKrtTpSp3f6bvi-z2-5" value="" style="shape=module;jettyWidth=8;jettyHeight=4;" vertex="1" parent="3WThKrtTpSp3f6bvi-z2-4">
          <mxGeometry x="1" width="21" height="20" relative="1" as="geometry">
            <mxPoint x="-28" y="7" as="offset" />
          </mxGeometry>
        </mxCell>
        <mxCell id="3WThKrtTpSp3f6bvi-z2-7" style="edgeStyle=orthogonalEdgeStyle;rounded=0;orthogonalLoop=1;jettySize=auto;html=1;exitX=0;exitY=0;exitDx=10;exitDy=210;exitPerimeter=0;entryX=0.067;entryY=0.048;entryDx=0;entryDy=0;entryPerimeter=0;" edge="1" parent="1" source="3WThKrtTpSp3f6bvi-z2-6" target="3WThKrtTpSp3f6bvi-z2-1">
          <mxGeometry relative="1" as="geometry" />
        </mxCell>
        <mxCell id="3WThKrtTpSp3f6bvi-z2-8" value="TLS/TCIIP" style="edgeLabel;html=1;align=center;verticalAlign=middle;resizable=0;points=[];" vertex="1" connectable="0" parent="3WThKrtTpSp3f6bvi-z2-7">
          <mxGeometry x="-0.1022" y="-1" relative="1" as="geometry">
            <mxPoint as="offset" />
          </mxGeometry>
        </mxCell>
      </root>
    </mxGraphModel>
  </diagram>
</mxfile>
